<svg width="74" height="37" viewBox="0 0 74 37" fill="none" xmlns="http://www.w3.org/2000/svg">
<path d="M29.299 16.1C30.399 16.1 31.2657 16.4167 31.899 17.05C32.5657 17.65 32.899 18.4667 32.899 19.5V28.2C32.899 29.8667 32.7657 31.15 32.499 32.05C32.2657 32.9167 31.8157 33.6 31.149 34.1C30.5157 34.6 29.549 35.0333 28.249 35.4C26.949 35.7333 25.499 35.9833 23.899 36.15C22.3324 36.35 20.8657 36.45 19.499 36.45C15.6657 36.45 12.3324 35.7333 9.49902 34.3C6.69902 32.8333 4.54902 30.75 3.04902 28.05C1.54902 25.3167 0.799024 22.0833 0.799024 18.35C0.799024 14.6833 1.54902 11.5 3.04902 8.8C4.54902 6.06666 6.68236 3.96666 9.44902 2.5C12.2157 1.03333 15.449 0.299998 19.149 0.299998C21.4824 0.299998 23.5657 0.583331 25.399 1.15C27.2657 1.68333 28.999 2.51666 30.599 3.65C31.1657 4.05 31.5657 4.48333 31.799 4.95C32.0657 5.41666 32.199 6.01666 32.199 6.75C32.199 7.78333 31.9157 8.66667 31.349 9.4C30.7824 10.1 30.099 10.45 29.299 10.45C28.7657 10.45 28.299 10.3833 27.899 10.25C27.5324 10.0833 27.049 9.81667 26.449 9.45C25.2157 8.78333 24.049 8.3 22.949 8C21.8824 7.7 20.7157 7.55 19.449 7.55C16.2824 7.55 13.9157 8.43333 12.349 10.2C10.8157 11.9667 10.049 14.6833 10.049 18.35C10.049 22.1167 10.849 24.9167 12.449 26.75C14.0824 28.55 16.5657 29.45 19.899 29.45C21.499 29.45 23.0824 29.2833 24.649 28.95V22.4H21.049C19.949 22.4 19.099 22.1333 18.499 21.6C17.899 21.0333 17.599 20.25 17.599 19.25C17.599 18.25 17.899 17.4833 18.499 16.95C19.099 16.3833 19.949 16.1 21.049 16.1H29.299ZM55.6561 36.45C52.0561 36.45 48.9227 35.7167 46.2561 34.25C43.6227 32.75 41.5894 30.65 40.1561 27.95C38.7227 25.2167 38.0061 22.0167 38.0061 18.35C38.0061 14.6833 38.7227 11.5 40.1561 8.8C41.5894 6.06666 43.6227 3.96666 46.2561 2.5C48.9227 1.03333 52.0561 0.299998 55.6561 0.299998C59.2561 0.299998 62.3727 1.03333 65.0061 2.5C67.6727 3.96666 69.7061 6.06666 71.1061 8.8C72.5394 11.5 73.2561 14.6833 73.2561 18.35C73.2561 22.0167 72.5394 25.2167 71.1061 27.95C69.6727 30.65 67.6227 32.75 64.9561 34.25C62.3227 35.7167 59.2227 36.45 55.6561 36.45ZM55.6561 29.4C58.3227 29.4 60.4061 28.4667 61.9061 26.6C63.4061 24.7 64.1561 21.95 64.1561 18.35C64.1561 14.75 63.3894 12.0167 61.8561 10.15C60.3561 8.28333 58.2894 7.35 55.6561 7.35C52.9894 7.35 50.9061 8.28333 49.4061 10.15C47.9061 11.9833 47.1561 14.7167 47.1561 18.35C47.1561 21.9833 47.9061 24.7333 49.4061 26.6C50.9061 28.4667 52.9894 29.4 55.6561 29.4Z" fill="black"/>
</svg>
